# xmcd
#
# Track frame offsets:
#	150
#	12127
#	26589
#	39667
#	52505
#	64506
#	77382
#	95022
#	106998
#	116898
#	130686
#	144133
#	158695
#	171032
#	186175
#	198234
#	213639
#	227154
#	242303
#	255312
#	272502
#
# Disc length: 3828 seconds
#
# Revision: 1
# Processed by: cddbd v1.5.1PL0 Copyright (c) Steve Scherf et al.
# Submitted via: CDex 1.50Beta5
#
DISCID=030ef215
DTITLE=Various Artist - 少女義経伝 オリジナルサウンドトラック
DYEAR=2003
DGENRE=Soundtrack
TTITLE0=勝浦剛/デジタル・ゴースト
TTITLE1=六丸家裕光/伝承再生
TTITLE2=林克洋/櫻の木の下で
TTITLE3=林克洋/百鬼夜行
TTITLE4=並木晃一/源の熱き声
TTITLE5=畑亜貴/狂風撃破
TTITLE6=六丸家裕光/夜光虫
TTITLE7=林康/デイライト
TTITLE8=林克洋/不揃いダンス
TTITLE9=勝浦剛/心の迷宮
TTITLE10=林康/サイレント・ウィンド
TTITLE11=並木晃一/駆け抜ける奇禍
TTITLE12=浅乃一/リフレクション
TTITLE13=林康/セラフィック
TTITLE14=並木晃一/明日への力
TTITLE15=畑亜貴/優しき日々にて
TTITLE16=勝浦剛/スピリチュアル・トーン
TTITLE17=六丸家裕光/幽鬼
TTITLE18=浅乃一/ラスト・ミザリー
TTITLE19=浅乃一/エッジ・アウト
TTITLE20=畑亜貴/月夜幻華
EXTD=
EXTT0=
EXTT1=
EXTT2=
EXTT3=
EXTT4=
EXTT5=
EXTT6=
EXTT7=
EXTT8=
EXTT9=
EXTT10=
EXTT11=
EXTT12=
EXTT13=
EXTT14=
EXTT15=
EXTT16=
EXTT17=
EXTT18=
EXTT19=
EXTT20=
PLAYORDER=
